<?xml version="1.0" encoding="UTF-8" standalone="no"?>
<svg
   xmlns:dc="http://purl.org/dc/elements/1.1/"
   xmlns:cc="http://creativecommons.org/ns#"
   xmlns:rdf="http://www.w3.org/1999/02/22-rdf-syntax-ns#"
   xmlns:svg="http://www.w3.org/2000/svg"
   xmlns="http://www.w3.org/2000/svg"
   xmlns:sodipodi="http://sodipodi.sourceforge.net/DTD/sodipodi-0.dtd"
   xmlns:inkscape="http://www.inkscape.org/namespaces/inkscape"
   version="1.1"
   x="0px"
   y="0px"
   viewBox="0 0 100 125"
   style="enable-background:new 0 0 100 100;"
   xml:space="preserve"
   id="svg14"
   sodipodi:docname="noun_profile_413429.svg"
   inkscape:version="0.92.4 (5da689c313, 2019-01-14)"><metadata
     id="metadata20"><rdf:RDF><cc:Work
         rdf:about=""><dc:format>image/svg+xml</dc:format><dc:type
           rdf:resource="http://purl.org/dc/dcmitype/StillImage" /></cc:Work></rdf:RDF></metadata><defs
     id="defs18" /><sodipodi:namedview
     pagecolor="#ffffff"
     bordercolor="#666666"
     borderopacity="1"
     objecttolerance="10"
     gridtolerance="10"
     guidetolerance="10"
     inkscape:pageopacity="0"
     inkscape:pageshadow="2"
     inkscape:window-width="1920"
     inkscape:window-height="986"
     id="namedview16"
     showgrid="false"
     inkscape:zoom="5.3400704"
     inkscape:cx="50.324498"
     inkscape:cy="47.356176"
     inkscape:window-x="-11"
     inkscape:window-y="-11"
     inkscape:window-maximized="1"
     inkscape:current-layer="svg14" /><g
     id="g8"><path
       d="M93.2,77c-10.2-7.3-19.3-11.1-30-12.7v-7.8c6.2-4.2,10.3-11.4,10.3-19.5V27C73.5,14,63,3.5,50,3.5S26.5,14,26.5,27v10   c0,8.1,4.1,15.2,10.3,19.4v7.8c-10.7,1.6-19.7,5.4-30,12.7C6.3,77.3,6,78,6,78.6v15.9c0,1.1,0.9,2,2,2h84c1.1,0,2-0.9,2-2V78.6   C94,78,93.7,77.3,93.2,77z M30.5,37V27c0-10.8,8.7-19.5,19.5-19.5S69.5,16.2,69.5,27v10c0,10.8-8.7,19.5-19.5,19.5   S30.5,47.8,30.5,37z M90,92.5H10V79.6c9.9-6.9,18.6-10.3,29.1-11.6c1-0.1,1.8-1,1.8-2v-7.4c2.8,1.2,5.9,1.9,9.2,1.9   c3.2,0,6.3-0.7,9.2-1.9V66c0,1,0.8,1.9,1.8,2c10.4,1.3,19.2,4.8,29.1,11.6V92.5z"
       id="path2" /><circle
       cx="41.5"
       cy="28.5"
       r="3.5"
       id="circle4" /><circle
       cx="58.5"
       cy="28.5"
       r="3.5"
       id="circle6" /></g></svg>